<svg xmlns="http://www.w3.org/2000/svg" width="50" height="50" viewBox="0 0 67.333 67.314"><g id="qmEMf0.tif" transform="translate(0 0)"><g id="Group_1727" data-name="Group 1727" transform="translate(0 0)"><path id="Path_5796" data-name="Path 5796" d="M785.983,958.208c-.8,0-1.648-.045-2.485.03-.228.02-.484.365-.627.618a4.216,4.216,0,0,1-4.2,2.332,4.122,4.122,0,0,1-3.729-2.793,4.326,4.326,0,0,1,2.094-5.387,4.232,4.232,0,0,1,5.558,1.517,1.693,1.693,0,0,0,1.921,1.037,11.764,11.764,0,0,1,1.47-.011c.257-1.39.489-2.729.756-4.061.144-.72.648-1.536.438-2.108-.186-.509-1.133-.736-1.739-1.1a1.308,1.308,0,1,1,1.141-2.354c.305.118.593.284.886.432s.579.3.863.443l3.3-4.835a24.217,24.217,0,0,0-1.838-1.7c-.2-.153-.656-.029-.975.047a4.272,4.272,0,0,1-4.258-1.067,4.159,4.159,0,0,1-1.161-4.155,4.262,4.262,0,0,1,5.359-3.081,4.166,4.166,0,0,1,2.992,5.24,1.391,1.391,0,0,0,.476,1.691c.7.615,1.333,1.3,1.984,1.969.853.874.87,1.449.029,2.327a20.443,20.443,0,0,0-4.251,6.685c-4.413,11.107,2.886,24.176,14.666,26.2a19.374,19.374,0,0,0,17.225-5.093c1.015-.935,1.506-.931,2.506.052.645.634,1.313,1.249,1.91,1.927a1.366,1.366,0,0,0,1.626.472,4.219,4.219,0,0,1,4.846,1.876,4.348,4.348,0,0,1-5.888,6.013,4.22,4.22,0,0,1-1.975-4.947,1.273,1.273,0,0,0-.431-1.555,13.537,13.537,0,0,1-1.181-1.348l-4.815,3.294c.209.413.46.885.688,1.369a1.38,1.38,0,0,1-.493,1.987c-.718.342-1.408.04-1.87-.822-.269-.5-.535-1.008-.759-1.431l-6.389,1.34c0,.739-.045,1.611.031,2.473.02.222.39.461.648.608a4.345,4.345,0,1,1-6.074,5.4,4.209,4.209,0,0,1,1.809-5.207A1.509,1.509,0,0,0,807,980.81a14.19,14.19,0,0,1-.011-1.559l-6.378-1.332c-.236.44-.525.988-.825,1.53a1.326,1.326,0,1,1-2.348-1.2c.227-.494.486-.974.725-1.448l-4.8-3.286a21.548,21.548,0,0,0-1.62,1.84,1.464,1.464,0,0,0,.013,1.041,4.345,4.345,0,1,1-7.984-.879,4.177,4.177,0,0,1,4.758-2.069,1.639,1.639,0,0,0,1.965-.607,9.744,9.744,0,0,1,1.158-1.033l-3.314-4.859c-.507.257-1.032.543-1.574.794a1.361,1.361,0,0,1-1.931-.473c-.367-.7-.074-1.424.769-1.889,1.7-.937,1.665-.929,1.216-2.829C786.492,961.151,786.271,959.72,785.983,958.208Zm3.288-22.041a1.665,1.665,0,0,0-1.626-1.706,1.689,1.689,0,1,0,1.626,1.706ZM829.032,979.3a1.688,1.688,0,1,0-1.673-1.66A1.675,1.675,0,0,0,829.032,979.3Zm-39.756-1.645a1.691,1.691,0,1,0-1.691,1.641A1.666,1.666,0,0,0,789.276,977.656Zm20.731,8.534a1.691,1.691,0,1,0-1.728,1.691A1.674,1.674,0,0,0,810.007,986.19Zm-29.319-29.309a1.686,1.686,0,1,0-1.728,1.692A1.69,1.69,0,0,0,780.688,956.881Z" transform="translate(-774.649 -923.224)" fill="#37acac"></path><path id="Path_5797" data-name="Path 5797" d="M830.96,922.7a34.748,34.748,0,0,1,5.1-3.336c-.284-.559-.567-1.083-.82-1.622a1.366,1.366,0,0,1,.462-1.933c.7-.376,1.424-.084,1.893.751.318.566.536,1.378,1.021,1.6.438.2,1.172-.264,1.785-.389,1.417-.29,2.84-.553,4.366-.847a20.919,20.919,0,0,0-.036-2.457c-.031-.268-.446-.544-.743-.719a4.344,4.344,0,1,1,6.154-5.4,4.155,4.155,0,0,1-1.613,5.131,1.918,1.918,0,0,0-1.113,2.21,9.6,9.6,0,0,1,.008,1.158c2.011.463,3.9.911,5.79,1.311a.847.847,0,0,0,.685-.321c.311-.446.515-.965.79-1.439a1.309,1.309,0,1,1,2.335,1.18c-.249.577-.561,1.126-.856,1.709l4.83,3.293c.537-.57,1.185-1.19,1.736-1.887.14-.177.019-.611-.064-.9a4.343,4.343,0,0,1,1.87-4.938,4.517,4.517,0,0,1,5.336.588,4.41,4.41,0,0,1,.73,5.238,4.218,4.218,0,0,1-4.856,2.025,1.43,1.43,0,0,0-1.76.5,10.637,10.637,0,0,1-1.254,1.1l3.331,4.89c.468-.238.991-.517,1.526-.772a1.382,1.382,0,0,1,1.992.476c.351.71.047,1.4-.8,1.884-.563.319-1.371.549-1.588,1.034-.2.446.274,1.173.4,1.788.284,1.393.537,2.793.829,4.33.8,0,1.7.046,2.584-.033.214-.019.43-.426.58-.692a4.341,4.341,0,1,1,6.4,5.541,4.278,4.278,0,0,1-6.316-1.342,1.32,1.32,0,0,0-1.46-.823c-.594.054-1.2.011-1.753.011-.352,1.693-.655,3.327-1.041,4.94-.32,1.335-.364,1.324.89,1.98.243.127.495.239.726.385a1.316,1.316,0,0,1,.549,1.707,1.275,1.275,0,0,1-1.674.63c-.632-.25-1.228-.591-1.925-.934-.236.4-3.535,4.305-3.769,4.7-.246.411-2.912.058-2.137-.891,2.18-2.671,5.669-7.8,5.453-11.492.737-7.486-1.8-13.679-7.864-18.1-6.6-4.812-13.724-5.117-21.017-1.433-.357.18-4.514,2.964-5.273,4.228m35.466-6.106a1.647,1.647,0,0,0,1.666-1.657,1.691,1.691,0,1,0-1.666,1.657Zm8.59,20.745a1.691,1.691,0,0,0-.054-3.382,1.694,1.694,0,0,0-1.659,1.762A1.675,1.675,0,0,0,875.437,940.967Zm-29.3-29.319a1.691,1.691,0,0,0,1.654-1.685,1.691,1.691,0,1,0-1.654,1.685Z" transform="translate(-812.431 -905.619)" fill="#37acac"></path><path id="Path_5798" data-name="Path 5798" d="M836.981,988.469a6.044,6.044,0,1,1,6.132-5.995A6.075,6.075,0,0,1,836.981,988.469Zm.064-2.628a3.412,3.412,0,1,0-.023-6.824,3.4,3.4,0,0,0-3.377,3.416A3.444,3.444,0,0,0,837.045,985.842Z" transform="translate(-812.452 -953.097)" fill="#37acac"></path><path id="Path_5799" data-name="Path 5799" d="M873.983,1025.407a4.02,4.02,0,1,1-3.993,4.064A4.029,4.029,0,0,1,873.983,1025.407Zm1.386,4.052a1.365,1.365,0,1,0-1.382,1.325A1.373,1.373,0,0,0,875.369,1029.459Z" transform="translate(-838.617 -985.99)" fill="#37acac"></path><path id="Path_5800" data-name="Path 5800" d="M894.137,976.382a3.974,3.974,0,0,1,3.988,4.044,4.02,4.02,0,0,1-3.984,3.987,4.016,4.016,0,1,1,0-8.031Zm1.352,4.019a1.349,1.349,0,0,0-1.331-1.369,1.361,1.361,0,1,0,1.331,1.369Z" transform="translate(-852.103 -953.097)" fill="#37acac"></path><path id="Path_5801" data-name="Path 5801" d="M844.149,1030.289a1.719,1.719,0,0,1,1.753,1.685,1.81,1.81,0,0,1-1.714,1.755,1.724,1.724,0,0,1-1.73-1.711A1.674,1.674,0,0,1,844.149,1030.289Z" transform="translate(-820.144 -989.265)" fill="#37acac"></path><path id="Path_5802" data-name="Path 5802" d="M914.869,1021.532a1.718,1.718,0,1,1-3.435-.061,1.718,1.718,0,0,1,3.435.061Z" transform="translate(-866.424 -982.224)" fill="#37acac"></path><path id="Path_5803" data-name="Path 5803" d="M873.481,962.112a1.71,1.71,0,1,1-.029-3.42,1.715,1.715,0,0,1,1.735,1.7A1.7,1.7,0,0,1,873.481,962.112Z" transform="translate(-839.797 -941.228)" fill="#37acac"></path></g></g></svg>